<?xml version="1.0" encoding="utf-8"?>
<!-- Generator: Adobe Illustrator 27.2.0, SVG Export Plug-In . SVG Version: 6.00 Build 0)  -->
<svg 
version="1.1" 
id="sprites" 
xmlns="http://www.w3.org/2000/svg" 
xmlns:xlink="http://www.w3.org/1999/xlink" x="0px" y="0px"
width="512px" 
height="512px" 
viewBox="0 0 512 512" 
style="enable-background:new 0 0 512 512;" 
xml:space="preserve">

	<style>
		<![CDATA[
		.icon { display: none; }
		.icon:target { display: inline; }
		]]>
	</style>
	
	<g class="icon" id="close">
		<path style="fill:currentColor" d="m452.16,105.46l-45.62-45.62-150.54,150.54L105.46,59.84l-45.62,45.62,150.54,150.54L59.84,406.54l45.62,45.62,150.54-150.54,150.54,150.54,45.62-45.62-150.54-150.54,150.54-150.54Z"/>
	</g>
	
	<g class="icon" id="open">
		<path style="fill:currentColor" d="m201.37,288l176-176H48v352h352V134.63l-176,176-22.63-22.63Z"/>
		<path style="fill:currentColor" d="m320,48v32h89.37l-32,32,22.63,22.63,32-32v89.37h32V48h-144Z"/>
	</g>
	
	<g class="icon" id="menu-alt">
		<circle style="fill:currentColor" cx="256" cy="256" r="55.64"/>
		<circle style="fill:currentColor" cx="256" cy="441.46" r="55.64"/>
		<circle style="fill:currentColor" cx="256" cy="70.54" r="55.64"/>	
	</g>
	
	<g class="icon" id="menu">
		<path style="fill:currentColor" d="m14.97,415.38h482.07v-53.13H14.97v53.13Zm0-132.82h482.07v-53.12H14.97v53.12Zm0-185.93v53.13h482.07v-53.13H14.97Z"/>
	</g>
	
	<g class="icon" id="mail">
		<path style="fill:currentColor" d="m469.38,75.45H42.62c-9.07,0-16.41,7.35-16.41,16.41v328.28c0,9.07,7.35,16.41,16.41,16.41h426.76c9.07,0,16.41-7.35,16.41-16.41V91.86c0-9.07-7.35-16.41-16.41-16.41Zm-203.31,209.92c-5.93,4.61-14.22,4.61-20.15,0l-160.68-124.97,20.15-25.91,150.61,117.13,150.61-117.13,20.15,25.91-160.68,124.97Z"/>
	</g>
	
	<g class="icon" id="appstore">
		<path style="fill:currentColor" d="m257.18,29.89c-123.74,0-224,100.26-224,224s100.26,224,224,224,224-100.26,224-224S380.92,29.89,257.18,29.89Zm-85,321.89c-2.8,4.77-7.93,7.69-13.46,7.65-2.77.02-5.49-.72-7.86-2.16-7.4-4.29-9.92-13.76-5.63-21.16.01-.02.02-.04.03-.05l15.29-25.42c1.57-2.67,4.44-4.31,7.54-4.3h2.26c11.09,0,18.85,6.67,21.11,13.13l-19.28,32.31Zm129.45-50l-100.13.11h-66.55c-8.54.04-15.49-6.86-15.53-15.39,0-.25,0-.5.02-.76.32-8.4,7.65-14.76,16-14.76h48.24l57.19-97.35-18.52-31.55c-4.17-7.19-2.32-16.67,4.83-21.19,7.22-4.67,16.86-2.6,21.53,4.62.12.18.23.37.34.55l9.9,16.91h.11l9.91-16.91c4.39-7.4,13.95-9.84,21.35-5.46.16.09.31.19.46.29,7.11,4.52,8.94,14,4.74,21.22l-18.52,31.55-18,30.69-39.09,66.66v.11h57.61c7.22,0,16.27,3.88,19.93,10.12l.32.65c3.23,5.49,5.06,9.26,5.06,14.75-.05,1.78-.45,3.54-1.17,5.17l-.03-.03Zm77.75.11h-27.11v.11l19.82,33.71c4.43,7.39,2.13,16.96-5.17,21.53-2.43,1.48-5.23,2.27-8.08,2.27-5.51,0-10.62-2.89-13.46-7.62l-29.29-49.86-18.2-31-23.48-40.14c-6.92-11.66-7.17-26.11-.65-38,4.64-8.19,8.19-10.34,8.19-10.34l52.23,88.34h44.91c8.4,0,15.61,6.46,16,14.75.33,8.64-6.4,15.91-15.04,16.24-.21,0-.43.01-.64.01h-.03Z"/>
	</g>
	
	<g class="icon" id="facebook">
		<path style="fill:currentColor" d="m480,257.35c0-123.7-100.3-224-224-224S32,133.65,32,257.35c0,111.8,81.9,204.47,189,221.29v-156.52h-56.89v-64.77h56.89v-49.35c0-56.13,33.45-87.16,84.61-87.16,24.51,0,50.15,4.38,50.15,4.38v55.13h-28.26c-27.81,0-36.51,17.26-36.51,35v42h62.12l-9.92,64.77h-52.19v156.54c107.1-16.81,189-109.48,189-221.31h0Z"/>
	</g>
	
	<g class="icon" id="github">
		<path style="fill:currentColor" d="m256,32c-123.7,0-224,102.9-224,229.7,0,101.5,64.2,187.5,153.2,217.9,1.25.27,2.52.41,3.8.4,8.3,0,11.5-6.1,11.5-11.4s-.2-19.9-.3-39.1c-7.41,1.74-14.99,2.64-22.6,2.7-43.1,0-52.9-33.5-52.9-33.5-10.2-26.5-24.9-33.6-24.9-33.6-19.5-13.7-.1-14.1,1.4-14.1h.1c22.5,2,34.3,23.8,34.3,23.8,11.2,19.6,26.2,25.1,39.6,25.1,8.86-.18,17.58-2.22,25.6-6,2-14.8,7.8-24.9,14.2-30.7-49.7-5.8-102-25.5-102-113.5,0-25.1,8.7-45.6,23-61.6-2.3-5.8-10-29.2,2.2-60.8,1.64-.39,3.32-.56,5-.5,8.1,0,26.4,3.1,56.6,24.1,36.7-10.27,75.5-10.27,112.2,0,30.2-21,48.5-24.1,56.6-24.1,1.68-.06,3.36.11,5,.5,12.2,31.6,4.5,55,2.2,60.8,14.3,16.1,23,36.6,23,61.6,0,88.2-52.4,107.6-102.3,113.3,8,7.1,15.2,21.1,15.2,42.5,0,30.7-.3,55.5-.3,63,0,5.4,3.1,11.5,11.4,11.5,1.34,0,2.68-.13,4-.4,89.1-30.4,153.2-116.5,153.2-217.9,0-126.8-100.3-229.7-224-229.7Z"/>
	</g>
	
	<g class="icon" id="playstore">	
		<path style="fill:currentColor" d="m48,59.49v393c0,2.39,1.95,4.32,4.34,4.32,1.13,0,2.22-.45,3.03-1.25l204.63-199.56L55.37,56.42c-1.7-1.68-4.44-1.66-6.12.04-.8.81-1.24,1.89-1.25,3.03Zm297.8,114.51L89.22,32.64l-.16-.09c-4.42-2.4-8.62,3.58-5,7.06l201.13,192.32,60.61-57.93ZM84.08,472.39c-3.64,3.48.56,9.46,5,7.06l.16-.09,256.56-141.36-60.61-57.95-201.11,192.34Zm365.3-241.39l-71.65-39.46-67.37,64.46,67.37,64.43,71.65-39.43c19.49-10.77,19.49-39.23,0-50Z"/>
	</g>
		
	<g class="icon" id="instagram">
		<path style="fill:currentColor" d="m349.33,69.33c51.49.15,93.19,41.85,93.34,93.34v186.66c-.15,51.49-41.85,93.19-93.34,93.34h-186.66c-51.49-.15-93.19-41.85-93.34-93.34v-186.66c.15-51.49,41.85-93.19,93.34-93.34h186.66m0-37.33h-186.66c-71.87,0-130.67,58.8-130.67,130.67v186.66c0,71.87,58.8,130.67,130.67,130.67h186.66c71.87,0,130.67-58.8,130.67-130.67v-186.66c0-71.87-58.8-130.67-130.67-130.67h0Z"/>
		<path style="fill:currentColor" d="m358.66,162.67c-15.46,0-28-12.54-28-28s12.54-28,28-28,28,12.54,28,28c.03,15.43-12.45,27.97-27.88,28-.04,0-.08,0-.12,0Zm-121.33,18.66c41.24,0,74.67,33.43,74.67,74.67s-33.43,74.67-74.67,74.67-74.67-33.43-74.67-74.67c.04-41.22,33.45-74.63,74.67-74.67m0-37.33c-61.86,0-112,50.14-112,112s50.14,112,112,112,112-50.14,112-112-50.14-112-112-112Z"/>
	</g>
	
	<g class="icon" id="mastodon">
		<path style="fill:currentColor" d="m479.99,173.59c0-104.13-68.26-134.65-68.26-134.65-34.44-15.79-93.54-22.44-154.94-22.94h-1.51c-61.4.5-120.46,7.15-154.88,22.94,0,0-68.27,30.52-68.27,134.65,0,23.85-.46,52.35.29,82.59,2.48,101.82,18.68,202.19,112.89,227.11,43.43,11.49,80.73,13.89,110.76,12.24,54.47-3,85-19.42,85-19.42l-1.79-39.5s-38.93,12.27-82.64,10.77c-43.31-1.48-89-4.67-96-57.81-.68-4.94-1.01-9.92-1-14.9,31.7,7.08,63.95,11.38,96.39,12.85,32.95,1.51,63.84-1.93,95.22-5.67,60.18-7.18,112.58-44.24,119.16-78.09,10.42-53.34,9.58-130.17,9.58-130.17h0Zm-80.54,134.16h-50v-122.37c0-25.8-10.86-38.89-32.58-38.89-24,0-36.06,15.53-36.06,46.24v67h-49.66v-67c0-30.71-12-46.24-36.06-46.24-21.72,0-32.58,13.09-32.58,38.89v122.37h-50v-126.08c0-25.77,6.58-46.23,19.75-61.39,13.6-15.15,31.4-22.92,53.51-22.92,25.58,0,44.95,9.82,57.75,29.48l12.47,20.85,12.45-20.85c12.81-19.66,32.17-29.48,57.75-29.48,22.11,0,39.91,7.77,53.51,22.92,13.19,15.15,19.78,35.61,19.75,61.39v126.08Z"/>
	</g>
	
	<g class="icon" id="pinterest">
		<path style="fill:currentColor" d="m256.05,31.95c-123.7,0-224,100.3-224,224,0,91.7,55.2,170.5,134.1,205.2-.6-15.6-.1-34.4,3.9-51.4,4.3-18.2,28.8-122.1,28.8-122.1,0,0-7.2-14.3-7.2-35.4,0-33.2,19.2-58,43.2-58,20.4,0,30.2,15.3,30.2,33.6,0,20.5-13.1,51.1-19.8,79.5-5.6,23.8,11.9,43.1,35.4,43.1,42.4,0,71-54.5,71-119.1,0-49.1-33.1-85.8-93.2-85.8-67.9,0-110.3,50.7-110.3,107.3,0,19.5,5.8,33.3,14.8,43.9,4.1,4.9,4.7,6.9,3.2,12.5-1.1,4.1-3.5,14-4.6,18-1.5,5.7-6.1,7.7-11.2,5.6-31.3-12.8-45.9-47-45.9-85.6,0-63.6,53.7-139.9,160.1-139.9,85.5,0,141.8,61.9,141.8,128.3,0,87.9-48.9,153.5-120.9,153.5-24.2,0-46.9-13.1-54.7-27.9,0,0-13,51.6-15.8,61.6-4.7,17.3-14,34.5-22.5,48,20.62,6.08,42,9.18,63.5,9.2,123.7,0,224-100.3,224-224S379.75,31.95,256.05,31.95Z"/>
	</g>
	
	<g  class="icon" id="snapchat">
		<path style="fill:currentColor" d="m496,347.19c-11.06-.81-22.04-2.59-32.79-5.31-27.28-6.63-54.84-24.26-68.12-52.43-6.9-14.63-2.64-18.59,11.86-24,14.18-5.27,29.8-7.72,36.86-23,5.89-12.76,1.13-27.76-10.41-35.49-15.71-10.53-30.35-.21-46.62,2.07,3.73-46.66,8.66-88.57-22.67-127.73-25.97-32.46-66.77-49.32-107.82-49.32s-81.86,16.86-107.81,49.33c-31.38,39.26-26.4,81.18-22.67,127.92-16.32-2.25-30.81-12.79-46.63-2.18-14.72,9.85-17,29.76-5.44,43,11.56,13.24,31.64,9.5,43.45,20.6,6.49,6.09,3.49,12.61-.35,20.14-14.48,28.4-39.26,45.74-69.84,51.56-4,.76-22.31,2.87-31,3.65,0,9.28.52,16.78,1.63,21.73,2.94,13.06,12.32,23.58,23.69,30.1,11.18,6.4,35.48,6.43,41.68,15.51,3,4.48,1.76,12.28,5.33,17.38,3.63,5.16,9.16,8.66,15.37,9.75,18.61,3.61,37.32-7.2,56.42-2.1,14.85,3.95,26.52,15.87,39.26,24,15.51,9.85,32.34,16.42,50.83,17.49,38.1,2.21,59.93-18.91,90.58-36.42,19.5-11.14,38.15-3.86,58.88-2.68,20.1,1.15,23.53-9.25,29.62-24.88.66-1.57,1.18-3.19,1.54-4.85.82-.39,1.59-.88,2.28-1.47,2-1.57,10.55-2.34,12.76-2.86,10.28-2.44,20.34-5.15,29.17-11.2,11.31-7.76,17.65-18.5,19.58-32.64.9-5.18,1.36-10.42,1.38-15.67h0ZM208,127.98c8.84,0,16,10.74,16,24s-7.16,24-16,24-16-10.74-16-24,7.16-24,16-24Zm103.62,77.7c-15.25,15-35,23.3-55.62,23.3-20.93-.04-40.97-8.44-55.66-23.34-3.13-3.13-3.13-8.19,0-11.32s8.19-3.13,11.32,0c11.7,11.89,27.66,18.61,44.34,18.66,16.39,0,32.15-6.64,44.39-18.7,3.15-3.1,8.21-3.06,11.32.08s3.06,8.21-.08,11.32h0Zm-7.62-29.7c-8.84,0-16-10.75-16-24s7.16-24,16-24,16,10.75,16,24-7.16,24-16,24Z"/>
	</g>
	
	<g class="icon" id="tiktok">
		<path style="fill:currentColor" d="m412.21,118.65c-3.24-1.67-6.39-3.51-9.45-5.5-8.89-5.88-17.04-12.8-24.27-20.62-18.1-20.71-24.86-41.72-27.35-56.43h.1c-2.08-12.21-1.22-20.11-1.09-20.11h-82.44v318.78c0,4.28,0,8.51-.18,12.69,0,.52-.05,1-.08,1.56,0,.23,0,.47-.05.71v.18c-1.76,23.23-14.97,44.05-35.22,55.56-10.39,5.91-22.15,9.02-34.11,9-38.41,0-69.54-31.32-69.54-70s31.13-70,69.54-70c7.27,0,14.5,1.14,21.41,3.39l.1-83.94c-42.43-5.48-85.22,7.04-118,34.52-14.21,12.35-26.16,27.08-35.3,43.53-3.48,6-16.61,30.11-18.2,69.24-1,22.21,5.67,45.22,8.85,54.73v.2c2,5.6,9.75,24.71,22.38,40.82,10.18,12.92,22.22,24.27,35.71,33.69v-.2l.2.2c39.91,27.12,84.16,25.34,84.16,25.34,7.66-.31,33.32,0,62.46-13.81,32.32-15.31,50.72-38.12,50.72-38.12,11.75-13.63,21.1-29.16,27.64-45.93,7.46-19.61,9.95-43.13,9.95-52.53v-169.12c1,.6,14.32,9.41,14.32,9.41,0,0,19.19,12.3,49.13,20.31,21.48,5.7,50.42,6.9,50.42,6.9v-81.84c-10.14,1.1-30.73-2.1-51.81-12.61Z"/>
	</g>
	
	<g class="icon" id="tumblr">
		<path style="fill:currentColor" d="m390,32H120c-49.19,0-88,38.81-88,88v270c0,49.19,38.81,90,88,90h270c49.19,0,90-40.81,90-90V120c0-49.19-40.81-88-90-88Zm-54,364h-52c-42.51,0-72-23.68-72-76v-80h-36v-48c42.51-11,57.95-48.32,60-80h44v72h52v56h-52l-.39,70.51c0,21.87,11,29.43,28.62,29.43l27.77.06v56Z"/>
	</g>
	
	<g class="icon" id="twitter">
		<path style="fill:currentColor" d="m496,109.5c-18.01,7.82-37.06,12.98-56.55,15.3,20.49-12,35.89-31.05,43.33-53.6-19.37,11.33-40.52,19.27-62.56,23.5-18.75-19.65-44.75-30.75-71.91-30.7-54.42,0-98.46,43.4-98.46,96.9-.04,7.44.81,14.86,2.54,22.1-78.91-3.7-152.6-40.47-203-101.3-8.74,14.74-13.37,31.56-13.39,48.7,0,33.6,17.53,63.3,44,80.7-15.68-.37-31.04-4.52-44.78-12.1v1.2c0,47,34,86.1,79,95-8.46,2.26-17.18,3.4-25.94,3.4-6.21.01-12.41-.59-18.51-1.8,12.51,38.5,48.92,66.5,92.05,67.3-35.05,27.01-78.07,41.61-122.32,41.5-7.85-.01-15.7-.48-23.5-1.4,45.01,28.74,97.33,43.95,150.74,43.8,181.36,0,280.44-147.7,280.44-275.8,0-4.2-.11-8.4-.31-12.5,19.23-13.68,35.87-30.68,49.13-50.2Z"/>
	</g>
	
	<g class="icon" id="vimeo">
		<path style="fill:currentColor" d="m476.89,113.99c-5-23.39-17.51-38.78-40.61-46.27s-64.92-4.5-94.12,16.79c-26.79,19.51-46.26,54.42-54,78.28-.68,2.1.48,4.36,2.58,5.03.83.27,1.72.26,2.55-.03,10.77-3.8,21.72-7.1,34-6.45,15,.8,24.51,12,24.91,25.29.3,9.79-.2,18.69-3.6,27.68-10.74,28.68-27.61,56.46-47.55,80.75-3,3.61-6.35,6.93-10,9.89-10.21,8.29-18.81,6.1-25.41-5.2-5.4-9.29-9-18.88-12.2-29.08-12.4-39.67-16.81-80.84-23.81-121.52-3.3-19.48-7-39.77-18-56.86-11.6-17.79-28.61-24.58-50-22-14.7,1.8-36.91,17.49-47.81,26.39,0,0-56,46.87-81.82,71.35l21.2,27s17.91-12.49,27.51-18.29c5.7-3.39,12.4-4.09,17.2.2,4.51,3.9,9.61,9,12.31,14.1,5.7,10.69,11.2,21.88,14.7,33.37,13.2,44.27,25.51,88.64,37.81,133.22,6.3,22.78,13.9,44.17,28,63.55,19.31,26.59,39.61,32.68,70.92,21.49,25.41-9.09,46.61-26.18,66-43.87,33.11-30.18,59.12-65.36,85.52-101.14,20.41-27.67,37.31-55.67,51.41-86.95,13.91-30.98,19.41-63.46,12.31-96.72Z"/>
	</g>
	
	<g class="icon" id="youtube">
		<path style="fill:currentColor" d="m508.68,148.78c0-45-33.1-81.2-74-81.2-55.4-2.59-111.9-3.59-169.64-3.59h-18c-57.6,0-114.2,1-169.6,3.6C36.64,67.59,3.54,103.99,3.54,148.99,1.04,184.58-.02,220.18.04,255.78c-.1,35.6,1.03,71.23,3.4,106.9,0,45,33.1,81.5,73.9,81.5,58.2,2.7,117.9,3.9,178.6,3.8,60.8.2,120.33-1.07,178.6-3.8,40.9,0,74-36.5,74-81.5,2.4-35.7,3.5-71.3,3.4-107,.23-35.6-.86-71.23-3.26-106.9h0Zm-301.64,205.1v-196.5l145,98.2-145,98.3Z"/>
	</g>
	
	<g class="icon" id="comment">
		<path style="fill:currentColor" d="m475.22,206.52c-10.34-48.65-37.76-92.93-77.22-124.68-40.35-32.29-90.5-49.87-142.18-49.84-60.92,0-117.82,23.47-160.36,66.09-41.11,41.24-63.64,95.69-63.46,153.28,0,42.22,12.4,83.52,35.65,118.76l4.35,6.05-24,103.82,114.8-28.56s2.3.77,4,1.42,16.33,6.26,31.85,10.6c12.9,3.6,39.74,9,60.77,9,59.65,0,115.35-23.1,156.83-65.06,41.11-41.63,63.75-96.98,63.75-155.91,0-15.12-1.6-30.19-4.78-44.97Z"/>
	</g>
	
	<g class="icon" id="comments">
		<path style="fill:currentColor" d="m448,312.43c.77-1.11,1.51-2.26,2.27-3.34,19.34-28.74,29.69-62.59,29.73-97.24.32-99.3-83.46-179.85-187.06-179.85-90.36,0-165.74,61.49-183.4,143.12-2.65,12.1-3.99,24.45-4,36.83,0,99.4,80.56,182.11,184.16,182.11,16.47,0,38.66-4.95,50.83-8.29s24.23-7.75,27.35-8.94,8-2.41,11.89-1.29l77.42,22.38c2.12.63,4.34-.58,4.97-2.7.21-.7.22-1.45.03-2.16l-17.72-67.49c-1.23-5-1.39-5.94,3.53-13.14h0Z"/>
		<path style="fill:currentColor" d="m312.54,415.38c-7.7,1.23-15.47,1.92-23.26,2.05-42.43,0-82.5-11.2-115-32.2-20.79-12.76-38.84-29.52-53.09-49.32-26.08-34.57-40.3-78.51-40.3-124.49,0-3.13.11-6.14.22-9.16.11-2.39-1.75-4.42-4.14-4.53-1.29-.06-2.53.46-3.4,1.41-49.27,53.91-55.41,134.49-14.86,195.24,2.47,3.77,3.87,6.68,3.44,8.62l-14.09,72.26c-.41,2.17,1.02,4.26,3.19,4.67.68.13,1.38.08,2.03-.14l68-24.24c4.16-1.65,8.81-1.57,12.92.22,20.35,8,42.86,12.92,65.37,12.92,43.33.14,85.06-16.32,116.63-46,1.7-1.65,1.73-4.37.08-6.07-.97-1-2.36-1.46-3.74-1.24h0Z"/>
	</g>
	
	<g class="icon" id="bookmarks">
		<path style="fill:currentColor" d="m112,0v48h304v368l48,32V0H112Z"/>
		<path style="fill:currentColor" d="m48,80v432l168-124,168,124V80H48Z"/>
	</g>
	
	<g class="icon" id="lightbulb">
		<path style="fill:currentColor" d="m208,464h96v32h-96v-32Zm-16-48h128v32h-128v-32ZM369.42,62.69c-30.07-30.11-70.35-46.69-113.42-46.69-88.16-.21-159.79,71.08-160,159.24,0,.25,0,.51,0,.76,0,46.62,17.87,90.23,49,119.64l4.36,4.09c18.01,16.84,42.64,39.91,42.64,60.27v40h48v-130.89l-44.28-25.11,18.28-26.28,42,22.28,41.29-22.39,19.1,25.68-44.39,26v130.71h48v-40c0-19.88,24.36-42.93,42.15-59.77l4.91-4.66c32.02-30.57,48.94-71.96,48.94-119.57.21-42.47-16.56-83.27-46.58-113.31h0Z"/>
	</g>
	
	<g class="icon" id="funnel">
		<path style="fill:currentColor" d="m0,48l192,240v128l128,48v-176l192-240H0Z"/>
	</g>
	
	<g class="icon" id="info-circle">
		<path style="fill:currentColor" d="m256,56c-110.28,0-200,89.72-200,200s89.72,200,200,200,200-89.72,200-200S366.28,56,256,56Zm0,82c14.36,0,26,11.64,26,26s-11.64,26-26,26-26-11.64-26-26,11.64-26,26-26Zm64,226h-120v-32h44v-88h-32v-32h64v120h44v32Z"/>
	</g>
	
	<g class="icon" id="library">
		<path style="fill:currentColor" d="m84.44,480H28.44c-6.63,0-12-5.37-12-12V92c0-6.63,5.37-12,12-12h56c6.63,0,12,5.37,12,12v376c0,6.63-5.37,12-12,12ZM240.44,208v-52c0-6.63-5.37-12-12-12h-104c-6.63,0-12,5.37-12,12v52h128Zm-128,208v52c0,6.63,5.37,12,12,12h104c6.63,0,12-5.37,12-12v-52H112.44Zm0-176h128v144H112.44v-144Zm228,240h-72c-6.63,0-12-5.37-12-12V44c0-6.63,5.37-12,12-12h72c6.63,0,12,5.37,12,12v424c0,6.63-5.37,12-12,12Zm29-379.3l30,367.83c.55,6.6,6.34,11.52,12.95,10.97.17-.01.34-.03.5-.05l72.16-9c6.38-.8,11-6.49,10.47-12.9l-30.08-366.34c-.55-6.6-6.35-11.51-12.95-10.96-.08,0-.16.01-.25.02l-72.13,7.51c-6.47.7-11.21,6.43-10.67,12.92Z"/>
	</g>
	
	<g class="icon" id="link">
		<path style="fill:currentColor" d="m200.66,352h-56.66c-53.02,0-96-42.98-96-96s42.98-96,96-96h55.41m113.18,0h55.41c53.02,0,96,42.98,96,96s-42.98,96-96,96h-56.66m-142.27-96h175.86"/>
	</g>
	
	<g class="icon" id="locate">
		<path style="fill:currentColor" d="m256,96v-40m0,400v-40m0-304c-79.53,0-144,64.47-144,144s64.47,144,144,144,144-64.47,144-144-64.47-144-144-144Zm160,144h40m-400,0h40"/>
	</g>
	
	<g class="icon" id="location">
		<path style="fill:currentColor" d="m256,32c-88.33,0-160,64.51-160,144,0,128,160,304,160,304,0,0,160-176,160-304,0-79.49-71.67-144-160-144Zm0,224c-35.35,0-64-28.65-64-64s28.65-64,64-64,64,28.65,64,64c-.04,35.33-28.67,63.96-64,64Z"/>
	</g>
	
	<g class="icon" id="tags">
		<path style="fill:currentColor" d="m288,16L0,304l176,176L464,192V16h-176Zm80,128c-17.67,0-32-14.33-32-32s14.33-32,32-32,32,14.33,32,32-14.33,32-32,32Z"/>
		<path style="fill:currentColor" d="m480,64v144L216.9,471.1l25.1,24.9,270-272V64h-32Z"/>
	</g>
	
	<g class="icon" id="navigate">
		<path style="fill:currentColor" d="m480,32L32,240h240v240L480,32Z"/>
	</g>
	
	<g class="icon" id="options">
		<path style="fill:currentColor" d="m381.25,112c-8.84-24.99-36.27-38.08-61.26-29.24-13.66,4.83-24.4,15.58-29.24,29.24H48v32h242.75c8.84,24.99,36.27,38.08,61.26,29.24,13.66-4.83,24.4-15.58,29.24-29.24h82.75v-32h-82.75Zm-205.25,96c-20.33.03-38.45,12.84-45.25,32H48v32h82.75c8.84,24.99,36.27,38.08,61.26,29.24,13.66-4.83,24.4-15.58,29.24-29.24h242.75v-32h-242.75c-6.8-19.16-24.92-31.97-45.25-32Zm160,128c-20.33.03-38.45,12.84-45.25,32H48v32h242.75c8.84,24.99,36.27,38.08,61.26,29.24,13.66-4.83,24.4-15.58,29.24-29.24h82.75v-32h-82.75c-6.8-19.16-24.92-31.97-45.25-32Z"/>
	</g>
	
	<g class="icon" id="print">
		<path style="fill:currentColor" d="m400.12,96v-40c0-4.42-3.58-8-8-8H120.12c-4.42,0-8,3.58-8,8v40"/>
		<rect style="fill:currentColor" x="152.12" y="264" width="208" height="160" rx="4" ry="4"/>
		<rect style="fill:currentColor" x="152.12" y="264" width="208" height="160" rx="4" ry="4"/>
		<path style="fill:currentColor" d="m408.12,112H104.12c-30.93,0-56,25.07-56,56v208c0,4.42,3.58,8,8,8h56v72c0,4.42,3.58,8,8,8h272c4.42,0,8-3.58,8-8v-72h56c4.42,0,8-3.58,8-8v-208c0-30.93-25.07-56-56-56Zm-48,308c0,2.21-1.79,4-4,4h-200c-2.21,0-4-1.79-4-4v-152c0-2.21,1.79-4,4-4h200c2.21,0,4,1.79,4,4v152Zm34-212.08c-13.21,1.06-24.78-8.79-25.85-22-1.06-13.21,8.79-24.78,22-25.85,13.21-1.06,24.78,8.79,25.85,22,.1,1.28.1,2.57,0,3.85-.94,11.74-10.26,21.06-22,22Z"/>
	</g>
</svg>